<?xml version="1.0" encoding="UTF-8" standalone="no"?>
<!-- Created with Inkscape (http://www.inkscape.org/) -->

<svg
   version="1.1"
   id="svg2"
   width="366.37146"
   height="126.05009"
   viewBox="0 0 366.37146 126.05009"
   xmlns="http://www.w3.org/2000/svg"
   xmlns:svg="http://www.w3.org/2000/svg">
  <defs
     id="defs6" />
  <g
     id="g8"
     transform="translate(-1.3542375,24.598009)">
    <path
       id="path487"
       style="fill:#000000"
       d="m 173.48901,100.73532 c -1.13624,-1.136239 -0.73588,-6.231929 0.77346,-9.844279 0.79207,-1.8957 3.49207,-5.64041 6,-8.32159 5.01114,-5.35731 6.20478,-8.606506 1.92501,-5.24004 -3.37863,2.65763 -7.36514,2.77053 -7.36514,0.20859 0,-1.74727 -0.2924,-1.71596 -4.66948,0.5 -8.01272,4.05656 -12.33052,2.86536 -12.33052,-3.40175 0,-5.399859 2.56731,-9.186723 6.25,-9.218947 2.61838,-0.02291 2.11818,2.495756 -1.25967,6.342915 -3.00273,3.419922 -3.18033,5.971152 -0.48761,7.004442 2.80213,1.07528 8.60436,-1.60784 13.85573,-6.407296 2.9931,-2.735529 7.28691,-5.624607 9.54178,-6.420173 4.7511,-1.676287 4.8715,-1.41732 2.69825,5.803839 l -1.40152,4.6569 2.65152,-1.834 c 1.45834,-1.008706 3.32652,-2.166163 4.15152,-2.572131 1.66597,-0.819794 0.85978,-0.06522 -4.4435,4.159041 -2.24304,1.78666 -3.31542,4.14362 -5.21785,11.46819 -1.31701,5.07065 -3.06736,10.24616 -3.88966,11.50116 -1.41669,2.162139 -5.30852,3.088939 -6.78232,1.615129 z m 5.71846,-4.111199 c 1.60114,-3.09627 4.7423,-14.42803 4.16067,-15.00966 -0.80561,-0.80561 -8.41915,9.93443 -9.03718,12.74829 -1.19635,5.44694 2.3732,7.102239 4.87651,2.26137 z m 2.57406,-20.84125 c 3.22141,-2.710629 6.59737,-8.157655 5.64575,-9.109269 -1.58498,-1.584981 -10.5044,6.836028 -10.56898,9.978389 -0.0499,2.42672 1.28678,2.19075 4.92323,-0.86912 z m -16.96416,-8.63088 c 0.003,-0.4125 -0.50792,-0.75 -1.13479,-0.75 -1.62705,0 -3.79737,3.147483 -3.79247,5.5 0.004,1.730143 0.33595,1.595215 2.46323,-1 1.35248,-1.65 2.4613,-3.3375 2.46403,-3.75 z M 40.028863,91.263781 c -6.724941,-2.58403 -15.1445,-10.69139 -17.766839,-17.108042 -1.066827,-2.610438 -2.171562,-4.747938 -2.454967,-4.75 -0.283404,-0.0021 -1.305537,2.221269 -2.271405,4.940734 -2.364792,6.658228 -6.841451,11.055518 -11.2550526,11.055518 -4.578272,0 -6.14008599,-2.78082 -3.94542,-7.02483 1.313302,-2.53965 10.1724536,-10.020787 15.1952646,-12.831694 0.848827,-0.475027 1.966432,-5.117752 2.997103,-12.450484 0.903947,-6.431142 2.067495,-11.692992 2.585662,-11.692992 0.981928,0 0.217976,10.427026 -1.263846,17.25 -0.447937,2.0625 -0.452673,3.75 -0.01053,3.75 2.366694,0 18.044509,-14.7128 20.662232,-19.39041 0.575019,-1.0275 1.667705,-1.66078 2.428193,-1.40728 1.720725,0.57357 -9.118658,12.11015 -17.356925,18.473327 -3.1625,2.442691 -5.749645,5.202456 -5.749211,6.13281 0.0015,3.209573 5.788784,13.914463 9.56272,17.688393 2.08145,2.08145 6.518662,5.05051 9.860472,6.59792 7.080938,3.27878 6.41359,3.69923 -1.217456,0.76703 z M 11.595888,81.007121 c 2.948307,-3.35794 6.983033,-12.181881 6.013465,-13.151448 -1.065442,-1.065442 -12.7556586,8.573208 -13.3708546,11.024338 -1.548818,6.17099 2.72256,7.40589 7.3573896,2.12711 z m 147.226452,7.31969 c -5.8342,-2.63349 -12.52094,-9.16035 -15.65438,-15.280101 l -2.48601,-4.85528 -2.85752,6.04222 c -3.80863,8.053351 -10.63702,11.723011 -14.08442,7.569141 -2.23031,-2.68736 1.58213,-8.219098 9.23466,-13.399214 l 6.65014,-4.501586 1.15843,-8 c 1.59658,-11.02589 1.946,-12.5 2.963,-12.5 0.89442,0 0.59933,4.33601 -0.91874,13.5 -0.45556,2.75 -0.66018,5.170401 -0.45472,5.378668 0.20546,0.208268 3.34637,-0.884791 6.9798,-2.42902 6.22921,-2.647452 10.46976,-6.251153 10.46976,-8.897415 0,-2.520773 -5.92114,-6.644163 -13.04269,-9.082723 -4.10152,-1.40444 -8.08422,-2.77022 -8.85044,-3.03506 -0.76622,-0.26484 -1.13246,-0.74219 -0.81388,-1.06078 0.70393,-0.70392 12.77271,3.18191 17.94239,5.77698 4.49189,2.25483 7.17354,5.98559 6.2941,8.756467 -0.97451,3.070398 -5.81818,6.653785 -12.49183,9.241548 -7.00261,2.715323 -7.2297,3.455396 -3.48757,11.365621 3.03588,6.417314 10.74408,13.714004 16.7245,15.831624 2.32398,0.82291 3.55042,1.52184 2.72542,1.55318 -0.825,0.0313 -3.525,-0.85708 -6,-1.97427 z m -25.99246,-8.93289 c 2.46833,-2.64236 6.54767,-11.770053 5.65791,-12.659815 -0.1808,-0.180796 -2.76699,1.373843 -5.74709,3.454752 -6.14695,4.292223 -8.79989,8.446033 -6.87533,10.764983 1.83175,2.20712 3.87256,1.75002 6.96451,-1.55992 z m 127.99246,7.50807 c -1.34891,-1.62533 -0.30402,-3.65296 3.25,-6.3067 1.97391,-1.4739 2.09916,-2.0934 0.82887,-4.09992 -0.72522,-1.14554 -1.77504,-0.82073 -5.65613,1.75 -6.72813,4.45653 -12.42274,3.97824 -12.42274,-1.04338 0,-2.27304 0.13363,-2.29281 -5.39685,0.79824 -5.00358,2.79655 -7.60315,2.62897 -7.60315,-0.49013 0,-4.085994 9.21246,-12.00803 12.49792,-10.747283 0.92145,0.353594 2.25188,-2.381284 4.42657,-9.099385 4.46583,-13.795972 9.47317,-20.987812 13.06656,-18.766972 3.10063,1.91629 -1.81477,15.262064 -9.63645,26.163852 -5.69814,7.942032 -6.48159,11.011788 -3.49922,13.710798 2.12988,1.92752 4.11602,1.46538 8.8979,-2.0704 2.93599,-2.1709 3.19488,-2.770738 2.65445,-6.15037 -0.40724,-2.546771 -0.16835,-4.090182 0.74672,-4.824218 2.56442,-2.057093 5.42242,-2.355972 7.39801,-0.773656 1.87366,1.500683 1.86219,1.518494 -0.30246,0.469506 -2.88752,-1.39929 -6.25,0.250793 -6.25,3.067084 0,1.109184 0.99505,3.74564 2.21123,5.858791 l 2.21123,3.842093 5.32318,-2.35417 c 2.92775,-1.29479 5.07805,-1.957516 4.77843,-1.472728 -0.29961,0.484788 -2.5651,1.653008 -5.03441,2.596048 -3.46416,1.32297 -4.48966,2.22382 -4.48966,3.9439 0,2.60461 -3.55715,7.499 -5.45014,7.499 -0.71773,0 -1.86517,-0.675 -2.54986,-1.5 z m 6,-4.15499 c 0,-0.73975 -0.6199,-1.34501 -1.37756,-1.34501 -2.03913,0 -3.93881,2.73317 -3.21347,4.62338 0.5794,1.50989 0.79953,1.4979 2.61188,-0.14225 1.08853,-0.98511 1.97915,-2.39636 1.97915,-3.13612 z m -24.15004,-7.35128 c 4.37309,-3.167849 5.65381,-6.99373 2.34117,-6.99373 -2.9782,0 -8.19113,5.551109 -8.19113,8.72251 0,1.9468 1.31064,1.55948 5.84996,-1.72878 z m 15.79818,-21.01547 c 6.2603,-12.32282 5.4546,-20.81617 -0.89268,-9.41017 -2.815,5.05853 -7.75546,19.210571 -7.75546,22.215666 0,2.214808 4.10664,-3.865989 8.64814,-12.805496 z m -205.261573,27.61766 0.66883,-2.66483 -4.101295,2.09232 c -2.335437,1.19146 -5.468931,1.95977 -7.2777,1.78446 -3.166674,-0.30693 -3.176083,-0.32496 -3.071608,-5.8872 0.05764,-3.068624 0.58378,-6.435218 1.169205,-7.481316 0.82286,-1.470369 1.026011,-0.317704 0.895204,5.079326 l -0.169205,6.98132 3.20878,-0.14297 c 1.764829,-0.0786 4.761696,-1.10271 6.659704,-2.27575 2.954373,-1.8259 3.549342,-2.84837 4.134904,-7.105917 0.376189,-2.735221 1.152526,-5.262706 1.725192,-5.616633 0.998552,-0.617139 0.386077,6.473605 -0.908606,10.51912 -0.285525,0.89218 1.144189,-0.2978 3.177141,-2.64442 6.864665,-7.923794 9.605668,-7.831572 11.999736,0.40374 0.872615,3.00168 2.250885,5.71253 3.062821,6.0241 2.279896,0.87488 6.957208,-1.4835 10.3613,-5.22435 3.524927,-3.87363 8.338562,-6.653647 10.265683,-5.928732 0.917784,0.345237 2.304591,-2.593457 4.604488,-9.757077 1.810129,-5.638111 4.529299,-12.051111 6.042599,-14.251111 2.83975,-4.12837 6.49737,-5.68548 7.46035,-3.176 1.55557,4.05374 -5.20002,19.701274 -11.86993,27.493569 -2.471882,2.887834 -3.424162,4.965001 -3.424162,7.468951 0,6.37537 3.803572,7.04735 11.000002,1.94338 l 3.5,-2.48232 -3.24229,3.10522 c -5.40861,5.17997 -12.624319,5.51902 -13.846213,0.65061 l -0.61896,-2.46614 -4.40861,2.58362 c -4.449484,2.60757 -7.383929,2.62186 -7.383929,0.03596 0,-1.11509 -0.818007,-1.00121 -3.9543,0.5505 -5.825738,2.88235 -7.74835,1.83196 -9.736613,-5.31943 -2.095608,-7.537484 -3.267394,-7.401308 -9.68072,1.12502 -5.489799,7.29854 -7.24722,8.5889 -6.241798,4.58298 z m 37.659709,-3.13006 c 4.165839,-3.07346 5.636715,-6.26654 3.299748,-7.163319 -2.130641,-0.817604 -4.340427,0.64266 -7.096026,4.689169 -3.860404,5.66888 -2.094176,6.81999 3.796278,2.47415 z M 103.75797,63.602346 c 4.93777,-8.342193 8.51595,-17.581175 7.66643,-19.794995 -0.60181,-1.56827 -0.76538,-1.56753 -2.51007,0.0114 -1.02648,0.92895 -3.01289,4.2527 -4.41425,7.386124 -3.02728,6.768955 -6.957847,20.488275 -5.635766,19.671184 0.510233,-0.315341 2.712376,-3.588507 4.893656,-7.273702 z m 102.93055,14.845605 -1.02978,-2.95403 -4.86014,2.70403 c -3.82774,2.12965 -5.12099,2.44489 -6.08816,1.48407 -0.97069,-0.96431 -0.96359,-2.02128 0.0339,-5.04368 1.43293,-4.341829 6.89262,-8.687723 11.08067,-8.820182 1.45782,-0.04611 3.1786,-0.410165 3.82396,-0.809017 1.47838,-0.913694 1.46,-0.184522 -0.13593,5.392849 -1.47036,5.13853 -1.1529,8.88541 0.81687,9.64128 1.91365,0.73434 8.38818,-2.53874 9.97122,-5.04076 0.73096,-1.155285 1.63641,-4.010662 2.01213,-6.34528 0.37571,-2.334618 1.12265,-4.516413 1.65987,-4.848435 0.61507,-0.380133 0.71498,0.791806 0.2698,3.164817 l -0.70698,3.768492 3.13369,-2.231386 c 1.72354,-1.227262 4.82547,-2.42097 6.8932,-2.652685 3.41764,-0.38299 3.4848,-0.347692 0.73858,0.388177 -5.14059,1.377457 -8.3964,4.191997 -10.72768,9.27371 -1.23183,2.68514 -2.62797,4.88207 -3.10254,4.88207 -0.47456,0 -0.60382,-0.675 -0.28723,-1.5 0.74527,-1.94215 0.37092,-1.89651 -4.10045,0.5 -5.42047,2.9052 -8.14615,2.62841 -9.395,-0.95404 z m -3.86906,-3.66232 c 3.86311,-3.490092 5.062,-6.611032 3.02355,-7.870867 -2.39618,-1.48092 -9.02067,5.756467 -9.02067,9.855257 0,2.50618 1.61989,1.97018 5.99712,-1.98439 z m 77.00288,-1.810603 c 0,-0.250665 2.7202,-1.905603 6.04488,-3.677641 3.32468,-1.772038 5.65436,-3.485927 5.17706,-3.808642 -1.74327,-1.178665 -1.9712,-3.745824 -0.54489,-6.137138 1.00873,-1.69121 1.2677,-1.837666 0.83646,-0.473046 -0.41322,1.307597 0.69892,0.630692 3.28597,-2 5.22176,-5.309857 15.08246,-13.47899 13.23871,-10.96767 -1.07614,1.46579 -0.68039,1.33153 1.5,-0.5089 1.629,-1.375 4.08681,-3.1348 5.46181,-3.91066 2.26231,-1.27653 2.37484,-1.25919 1.18362,0.18245 -0.72401,0.87621 -1.39901,3.15735 -1.5,5.0692 -0.10099,1.91185 -0.3424,3.320961 -0.53647,3.13136 -0.19407,-0.1896 -1.4644,0.864059 -2.82296,2.341462 l -2.4701,2.686188 2.25192,-3.237701 c 1.23856,-1.780739 1.98976,-3.499859 1.66935,-3.820279 -0.5512,-0.55119 -6.77536,7.738068 -6.77536,9.023339 0,0.763766 3.16038,-0.89204 9.28223,-4.863194 3.55148,-2.303795 5.07078,-4.063115 5.90346,-6.836055 0.61668,-2.05365 1.95218,-4.48589 2.96777,-5.40499 2.38695,-2.16016 2.3312,-1.23145 -0.22712,3.78326 -2.26065,4.43125 -2.00199,4.39389 5.12099,-0.7398 3.73415,-2.69129 4.8659,-4.28799 6.3288,-8.92884 0.9798,-3.10831 2.01586,-5.41709 2.30233,-5.13061 0.28648,0.28648 -0.0742,2.23852 -0.8016,4.33787 -2.21994,6.40733 -2.05226,6.88658 2.26551,6.47481 2.11557,-0.20175 3.6081,-0.75254 3.31674,-1.22397 -0.29136,-0.47144 1.335,-1.80848 3.61414,-2.97121 2.80982,-1.43346 4.00427,-1.68726 3.71021,-0.78834 -0.23852,0.72914 -1.792,1.77571 -3.45216,2.32571 -1.66017,0.55 -3.01944,1.45 -3.0206,2 -10e-4,0.55 -2.3814,1.34241 -5.28942,1.76092 -4.37057,0.62898 -7.64831,2.34274 -18.9043,9.88405 -13.73578,9.20273 -19.55645,13.809831 -15.78519,12.494108 1.00748,-0.351493 2.49654,-0.639078 3.30901,-0.639078 0.81248,0 1.19912,-0.45 0.8592,-1 -0.37325,-0.603931 0.98962,-1 3.44098,-1 2.23246,0 4.05902,0.45 4.05902,1 0,0.55 -1.0875,1 -2.41667,1 -1.32916,0 -2.58081,0.492438 -2.78143,1.094307 -0.41052,1.231555 -7.23086,2.969042 -13.37414,3.407072 -2.23973,0.159699 -6.85223,1.693697 -10.25,3.408886 -3.39777,1.715189 -6.17776,2.913436 -6.17776,2.662772 z m 19.33826,-4.311331 c 0.35706,-0.577742 2.4403,-1.221248 4.62941,-1.430014 4.92788,-0.469948 3.76478,1.012911 -1.45945,1.860687 -2.55233,0.414186 -3.60382,0.27133 -3.16996,-0.430673 z M 41.822338,62.901991 c 0,-0.825 0.7301,-1.5 1.622445,-1.5 1.32879,0 1.397126,0.271492 0.377555,1.5 -0.684689,0.825 -1.414789,1.5 -1.622445,1.5 -0.207655,0 -0.377555,-0.675 -0.377555,-1.5 z M 318.90567,59.04115 c 0.22917,-0.198463 2.44167,-0.65485 4.91667,-1.014194 3.14459,-0.45656 4.0482,-0.352486 3,0.345529 -1.3488,0.898191 -8.92014,1.537688 -7.91667,0.668665 z m -5.83333,-2.328485 c 0.9625,-0.251527 2.5375,-0.251527 3.5,0 0.9625,0.251528 0.175,0.457323 -1.75,0.457323 -1.925,0 -2.7125,-0.205795 -1.75,-0.457323 z m 20.75,-2.810674 c 1.29175,-1.375 2.57363,-2.5 2.84863,-2.5 0.275,0 -0.55688,1.125 -1.84863,2.5 -1.29175,1.375 -2.57363,2.5 -2.84863,2.5 -0.275,0 0.55688,-1.125 1.84863,-2.5 z m -12.91667,1.133055 c 0.22917,-0.20182 2.61486,-0.603384 5.30153,-0.892364 2.98646,-0.321225 4.34666,-0.184571 3.5,0.351633 -1.29674,0.821245 -9.70674,1.337922 -8.80153,0.540731 z m 1.91667,-3.191413 c 3.71578,-0.808442 8.81427,-0.950146 8.37084,-0.232652 -0.26888,0.435055 -2.59982,0.738809 -5.17986,0.675009 -2.58004,-0.0638 -4.01598,-0.262862 -3.19098,-0.442357 z m -5.67288,-4.498292 c 0.92009,-1.3136 1.67288,-3.65269 1.67288,-5.19798 0,-3.66194 2.56185,-9.74537 4.10396,-9.74537 0.77768,0 0.61822,0.64951 -0.44897,1.82874 -0.91025,1.00581 -1.65499,3.04526 -1.65499,4.53212 0,3.28865 -2.32471,9.10376 -4.07084,10.18292 -0.71628,0.44269 -0.5419,-0.25858 0.39796,-1.60043 z m 13.67288,0.62316 c 4.02776,-1.62763 7.88913,-2.02839 6.45,-0.66943 -0.5225,0.49339 -2.975,1.16409 -5.45,1.49044 l -4.5,0.59335 z m 5.19972,-3.51537 c 2.58485,-0.47903 5.28485,-1.20252 6,-1.60776 1.00103,-0.56722 1.03262,-0.44687 0.13724,0.52295 -0.63966,0.69286 -3.33966,1.41635 -6,1.60775 l -4.83696,0.34802 z m -8.05892,-8.19036 c -0.0965,-3.17796 0.41041,-5.24016 1.6092,-6.54713 0.9625,-1.04935 1.30674,-1.26316 0.76497,-0.47513 -0.54176,0.78804 -1.2659,3.73424 -1.6092,6.54713 l -0.62417,5.11435 z m 12.8592,-2.73232 c 3.025,-2.77303 5.8375,-5.06135 6.25,-5.08517 0.4125,-0.0238 0.75,-0.61004 0.75,-1.30274 0,-0.6927 0.9,-1.82152 2,-2.50848 3.77721,-2.35891 1.99391,0.46929 -3.75,5.94726 -3.1625,3.01608 -6.875,6.0479 -8.25,6.73739 -1.375,0.68948 -0.025,-1.01524 3,-3.78826 z m 12.99691,-1.87846 c 1.30856,-1.7875 2.53541,-3.25 2.72633,-3.25 0.75941,0 -1.72001,3.75054 -3.35979,5.08224 -1.08027,0.87731 -0.83879,0.17886 0.63346,-1.83224 z m -20.91364,1.25 c 0.003,-0.55 0.62976,-3.25 1.39337,-6 0.96621,-3.47966 1.4089,-4.19872 1.45587,-2.36481 0.0371,1.44935 -0.5899,4.14935 -1.39337,6 -0.80347,1.85065 -1.45861,2.91481 -1.45587,2.36481 z m 17.94815,-3.25 c 0.0173,-0.4125 1.25479,-1.61386 2.75,-2.6697 l 2.71858,-1.9197 -2.42431,2.6697 c -2.54755,2.8054 -3.09586,3.15117 -3.04427,1.9197 z m -10.78745,-5.5735 c -3.14915,-7.22578 -2.91687,-10.42462 0.316,-4.35169 1.40799,2.64489 2.42049,5.87073 2.25,7.16854 -0.25273,1.92394 -0.72654,1.40382 -2.566,-2.81685 z m -13.24397,2.97678 c 0,-1.81011 5.92443,-8.79635 5.97069,-7.04079 0.0161,0.61188 -1.32069,2.81125 -2.97069,4.88751 -1.88157,2.36764 -3,3.17041 -3,2.15328 z m 18.14933,-4.15328 c -0.0827,-1.1 -1.06943,-4.41818 -2.19277,-7.37373 -1.12334,-2.95555 -1.85942,-5.5567404 -1.63573,-5.7804304 0.92204,-0.92204 4.76616,10.0080304 4.38835,12.4774904 -0.26964,1.76241 -0.46087,1.99353 -0.55985,0.67667 z m 3.0005,-1.12788 c -0.0824,-1.17033 -0.82483,-3.74337 -1.64983,-5.71788 -0.825,-1.9745 -1.46712,-4.61696 -1.42693,-5.87212 0.045,-1.4042904 0.82721,-0.16651 2.03364,3.21788 1.07832,3.025 1.78786,6.625 1.57677,8 -0.3172,2.06612 -0.40982,2.1307 -0.53365,0.37212 z m 1.88561,-0.2106 c 0.0195,-0.91384 0.67854,-2.78652 1.46456,-4.16152 0.78602,-1.375 1.48925,-3.85 1.56274,-5.5 0.11839,-2.6583604 0.27199,-2.4875404 1.34875,1.5 1.16914,4.32969 1.24204,4.39515 1.92602,1.72948 0.78799,-3.07097 -0.61215,-6.4894704 -3.49621,-8.5361804 -1.01271,-0.71869 -1.8413,-1.99877 -1.8413,-2.84462 0,-0.87886 1.49986,0.25731 3.5,2.65132 3.49218,4.1798704 3.5,4.1830104 3.5,1.40502 0,-2.0729 -1.3298,-4.01316 -5.20515,-7.59461001 -5.70631,-5.27356999 -6.02805,-6.17133999 -0.83988,-2.34362999 1.83894,1.35671999 3.72721,2.22964999 4.19615,1.93981999 1.27943,-0.79073 2.85198,4.16735001 2.82552,8.90850001 -0.0275,4.9255104 -4.57485,13.9033804 -7.22664,14.2675804 -1.07146,0.14716 -1.73626,-0.40388 -1.71456,-1.42116 z m 8.56331,-0.92683 c 0.60431,-0.40408 1.113,-1.40969 1.13042,-2.23469 0.0402,-1.90303 4.21926,-10.9522304 4.24887,-9.2003404 0.0121,0.71481 -0.68622,2.6691304 -1.55178,4.3429304 -0.86555,1.6738 -1.33138,3.28562 -1.03518,3.58182 0.84026,0.84026 -1.31891,4.27739 -2.67626,4.26028 -0.84841,-0.0107 -0.88342,-0.23691 -0.11607,-0.75 z M 341.38663,7.1088606 c 0.37553,-0.98622 0.93469,-1.54122 1.24258,-1.23333 0.30789,0.30789 6.4e-4,1.11479 -0.68278,1.79313 -0.98762,0.98026 -1.10248,0.8654 -0.5598,-0.5598 z m 3.8701,-3.81304 c -1.54329,-2.49709001 -1.48254,-10.60898 0.0892,-11.91342 1.17081,-0.97169 1.47639,-0.9609 1.47639,0.0521 0,0.89894 0.54184,0.78707 1.82874,-0.37755 1.00581,-0.91025 2.32128,-1.6549896 2.92328,-1.6549896 1.50275,0 7.24798,4.9333496 7.24798,6.2237496 0,0.57528 -0.93266,-0.13972 -2.07258,-1.58889 -2.33829,-2.97265 -7.59204,-3.67241 -8.56359,-1.1406 -0.31537,0.82184 -0.99428,1.23413 -1.5087,0.91621 -0.83695,-0.51727 -0.63965,1.30111 0.71499,6.58952999 0.21132,0.82500001 7.5e-4,2.11054001 -0.46795,2.85676001 -0.70213,1.11789 -0.99577,1.12441 -1.66778,0.0371 z m 0.68768,-3.56883001 c -1.17884,-2.02720999 -1.46351,-1.37834999 -0.49853,1.13634 0.34294,0.89370001 0.83419,1.41426001 1.09166,1.15679001 0.25747,-0.25747 -0.009,-1.28938001 -0.59313,-2.29313001 z M 365.4324,1.6519906 c 0.35648,-1.51250001 1.10629,-3.2 1.66623,-3.75 0.68709,-0.6749 0.80767,-0.40448 0.37089,0.83179 -0.35595,1.00747999 -0.64718,2.69498 -0.64718,3.75 0,1.05501 -0.45857,1.91821 -1.01905,1.91821 -0.60216,0 -0.75389,-1.12503 -0.37089,-2.75 z m -2.52446,0.75 c 0.0302,-0.825 0.44171,-2.40000001 0.9144,-3.5 l 0.85943,-2 0.055,2 c 0.0302,1.09999999 -0.38124,2.675 -0.9144,3.5 -0.86167,1.33333 -0.96327,1.33333 -0.9144,0 z m -3.71131,-1.46701001 c -0.30962,-0.80686 -0.36997,-2.04435999 -0.1341,-2.74999999 0.23587,-0.70564 0.66592,-0.0455 0.95566,1.46700999 0.56574,2.95322001 0.099,3.68204001 -0.82156,1.28299 z M 327.18108,-7.1055394 c -0.92063,-2.39911 0.51047,-8.0564896 2.76207,-10.9189196 2.48238,-3.15584 8.85473,-6.57355 12.25645,-6.57355 2.85369,0 10.22278,3.05995 13.12274,5.4491 1.83079,1.50831 1.70388,1.50646 -1.5,-0.0219 l -3.5,-1.66965 3,3.31544 3,3.31543 -3.46205,-2.80805 c -4.65338,-3.77435 -5.29141,-1.50961 -0.90016,3.19521 l 3.36221,3.60228 -3.32673,-2.68891 c -1.82969,-1.4789 -3.69405,-2.68891 -4.14301,-2.68891 -1.43989,0 -1.91324,2.71376 -0.70212,4.02532 0.91882,0.99501 0.80793,1.14142 -0.51353,0.67804 -0.92697,-0.32505 -1.90394,-0.0538 -2.17105,0.60282 -0.28123,0.6912796 -0.5189,0.5062496 -0.56461,-0.43955 -0.0434,-0.89835 -1.04651,-1.88639 -2.22909,-2.19564 -2.11002,-0.55178 -11.11242,0.75521 -12.9272,1.87681 -1.50013,0.92713 -1.05578,3.2752796 0.82734,4.3720996 1.65849,0.96598 1.65684,1.02087 -0.0314,1.04969 -0.97977,0.0167 -2.04171,-0.64798 -2.35988,-1.47712 z m 36.52284,0.75753 c -0.0651,-0.4125 -0.0467,-1.14271 0.0409,-1.62268 0.0876,-0.47998 -0.45908,-0.63538 -1.21491,-0.34534 -0.76369,0.29306 -1.37423,-0.0967 -1.37423,-0.87732 0,-1.7892596 0.79667,-1.7735696 3.22554,0.0635 1.19722,0.90553 1.43947,1.48038 0.63211,1.5 -0.71997,0.0175 -1.03091,0.4818 -0.69099,1.0318 0.33992,0.55 0.36648,1 0.059,1 -0.30746,0 -0.61231,-0.3375 -0.67744,-0.75 z m -5.4227,-3.31653 c -0.36253,-0.5865896 -0.44468,-1.2809996 -0.18255,-1.5431296 0.26212,-0.26213 0.74306,0.21781 1.06875,1.06653 0.67618,1.7621096 0.0999,2.0720596 -0.8862,0.4765996 z" />
  </g>
</svg>
